# xmcd
#
# Track frame offsets:
#	150
#	18601
#	33311
#	52353
#	68853
#	86648
#	101434
#	119885
#	134595
#	153639
#	170138
#	187934
#
# Disc length: 2702 seconds
#
# Revision: 0
# Processed by: cddbd v1.5.2PL0 Copyright (c) Steve Scherf et al.
# Submitted via: audiograbber 1.83.01
#
DISCID=b40a8c0c
DTITLE=Various Artist - CB20068 Hot Hits Vol. 68
DYEAR=1900
DGENRE=Country
TTITLE0=Brooks and Dunn - I Can't Get Over You (Vocals)
TTITLE1=Wade Hayes - Tore Up From The Floor Up (Vocals)
TTITLE2=Warren Brothers, The - Better Man (Vocals)
TTITLE3=George Strait - Meanwhile (Vocals)
TTITLE4=Travis Tritt - No More Looking Over My Shoulder (Vocals)
TTITLE5=Vince Gill - Don't Come Crying To Me (Vocals)
TTITLE6=Brooks and Dunn - I Can't Get Over You
TTITLE7=Wade Hayes - Tore Up From The Floor Up
TTITLE8=Warren Brothers, The - Better Man
TTITLE9=George Strait - Meanwhile
TTITLE10=Travis Tritt - No More Looking Over My Shoulder
TTITLE11=Vince Gill - Don't Come Crying To Me
EXTD=
EXTT0=
EXTT1=
EXTT2=
EXTT3=
EXTT4=
EXTT5=
EXTT6=
EXTT7=
EXTT8=
EXTT9=
EXTT10=
EXTT11=
PLAYORDER=
